<?xml version="1.0" encoding="UTF-8"?>
<svg id="Layer_2" data-name="Layer 2" xmlns="http://www.w3.org/2000/svg" viewBox="0 0 475.81 356.36">
  <defs>
    <style>
      .cls-1 {
        fill: none;
        stroke: #231f20;
        stroke-miterlimit: 10;
        stroke-width: 5px;
      }
    </style>
  </defs>
  <g id="Layer_2-2" data-name="Layer 2">
    <polygon class="cls-1" points="59.7 80.43 59.7 59.6 2.5 59.6 2.5 36.87 59.7 36.87 59.7 16.04 91.89 48.23 59.7 80.43"/>
  </g>
  <g id="Layer_13" data-name="Layer 13">
    <polygon class="cls-1" points="419.49 3.54 442.22 3.54 442.22 60.73 463.05 60.73 430.86 92.93 398.66 60.73 419.49 60.73 419.49 3.54"/>
  </g>
  <g id="Layer_12" data-name="Layer 12">
    <polygon class="cls-1" points="290.36 16.04 290.36 36.87 347.55 36.87 347.55 59.6 290.36 59.6 290.36 80.43 258.16 48.23 290.36 16.04"/>
  </g>
  <g id="Layer_11" data-name="Layer 11">
    <polygon class="cls-1" points="207.05 35.73 186.22 35.73 186.22 92.93 163.49 92.93 163.49 35.73 142.66 35.73 174.86 3.54 207.05 35.73"/>
  </g>
  <g id="Layer_10" data-name="Layer 10">
    <polygon class="cls-1" points="36.66 215.38 36.66 180.42 36.7 180.42 48.26 180.42 48.26 201.25 80.46 169.06 48.26 136.86 48.26 157.69 13.97 157.69 13.94 157.69 13.94 215.38 36.66 215.38"/>
  </g>
  <g id="Layer_9" data-name="Layer 9">
    <polygon class="cls-1" points="391.26 165.59 426.21 165.59 426.21 165.62 426.21 177.18 405.38 177.18 437.58 209.38 469.77 177.18 448.94 177.18 448.94 142.89 448.94 142.86 391.26 142.86 391.26 165.59"/>
  </g>
  <g id="Layer_8" data-name="Layer 8">
    <polygon class="cls-1" points="214.11 186.65 179.16 186.65 179.16 186.62 179.16 175.06 199.99 175.06 167.79 142.86 135.6 175.06 156.43 175.06 156.43 209.35 156.43 209.38 214.11 209.38 214.11 186.65"/>
  </g>
  <g id="Layer_7" data-name="Layer 7">
    <polygon class="cls-1" points="313.39 136.86 313.39 171.82 313.36 171.82 301.79 171.82 301.79 150.98 269.6 183.18 301.79 215.38 301.79 194.54 336.08 194.54 336.12 194.54 336.12 136.86 313.39 136.86"/>
  </g>
  <polygon class="cls-1" points="444.05 350.33 444.05 315.37 444.02 315.37 432.45 315.37 432.45 336.2 400.25 304.01 432.45 271.81 432.45 292.64 466.74 292.64 466.77 292.64 466.77 350.33 444.05 350.33"/>
  <g id="Layer_5" data-name="Layer 5">
    <polygon class="cls-1" points="89.45 300.53 54.5 300.53 54.5 300.57 54.5 312.13 75.33 312.13 43.13 344.33 10.94 312.13 31.77 312.13 31.77 277.84 31.77 277.81 89.45 277.81 89.45 300.53"/>
  </g>
  <g id="Layer_4" data-name="Layer 4">
    <polygon class="cls-1" points="266.6 321.6 301.55 321.6 301.55 321.57 301.55 310 280.72 310 312.92 277.81 345.11 310 324.28 310 324.28 344.3 324.28 344.33 266.6 344.33 266.6 321.6"/>
  </g>
  <g id="Layer_3" data-name="Layer 3">
    <polygon class="cls-1" points="167.32 271.81 167.32 306.76 167.35 306.76 178.92 306.76 178.92 285.93 211.12 318.13 178.92 350.33 178.92 329.49 144.63 329.49 144.59 329.49 144.59 271.81 167.32 271.81"/>
  </g>
</svg>